<svg xmlns="http://www.w3.org/2000/svg" width="760" height="400" viewBox="0 0 760 400">
<rect width="100%" height="100%" fill="white"/>
<text x="380.00" y="32.00" font-family="Arial, sans-serif" font-size="18" text-anchor="middle" fill="#222">Within-distance-bin C-minus-A effects</text>
<line x1="90" y1="305" x2="690" y2="305" stroke="#333"/>
<line x1="90" y1="85" x2="90" y2="305" stroke="#333"/>
<line x1="85" y1="305.00" x2="690" y2="305.00" stroke="#ddd"/>
<text x="78.00" y="309.00" font-family="Arial, sans-serif" font-size="11" text-anchor="end" fill="#222">0.00</text>
<line x1="85" y1="250.00" x2="690" y2="250.00" stroke="#ddd"/>
<text x="78.00" y="254.00" font-family="Arial, sans-serif" font-size="11" text-anchor="end" fill="#222">0.03</text>
<line x1="85" y1="195.00" x2="690" y2="195.00" stroke="#ddd"/>
<text x="78.00" y="199.00" font-family="Arial, sans-serif" font-size="11" text-anchor="end" fill="#222">0.06</text>
<line x1="85" y1="140.00" x2="690" y2="140.00" stroke="#ddd"/>
<text x="78.00" y="144.00" font-family="Arial, sans-serif" font-size="11" text-anchor="end" fill="#222">0.09</text>
<line x1="85" y1="85.00" x2="690" y2="85.00" stroke="#ddd"/>
<text x="78.00" y="89.00" font-family="Arial, sans-serif" font-size="11" text-anchor="end" fill="#222">0.11</text>
<rect x="155.00" y="163.16" width="78" height="141.84" fill="#6a994e"/>
<text x="194.00" y="154.16" font-family="Arial, sans-serif" font-size="12" text-anchor="middle" fill="#222">0.074</text>
<text x="194.00" y="330.00" font-family="Arial, sans-serif" font-size="12" text-anchor="middle" fill="#222">0-5</text>
<text x="194.00" y="348.00" font-family="Arial, sans-serif" font-size="10" text-anchor="middle" fill="#222">A=3, C=10</text>
<rect x="290.00" y="187.32" width="78" height="117.68" fill="#6a994e"/>
<text x="329.00" y="178.32" font-family="Arial, sans-serif" font-size="12" text-anchor="middle" fill="#222">0.061</text>
<text x="329.00" y="330.00" font-family="Arial, sans-serif" font-size="12" text-anchor="middle" fill="#222">5-10</text>
<text x="329.00" y="348.00" font-family="Arial, sans-serif" font-size="10" text-anchor="middle" fill="#222">A=4, C=10</text>
<rect x="425.00" y="142.04" width="78" height="162.96" fill="#6a994e"/>
<text x="464.00" y="133.04" font-family="Arial, sans-serif" font-size="12" text-anchor="middle" fill="#222">0.085</text>
<text x="464.00" y="330.00" font-family="Arial, sans-serif" font-size="12" text-anchor="middle" fill="#222">10-20</text>
<text x="464.00" y="348.00" font-family="Arial, sans-serif" font-size="10" text-anchor="middle" fill="#222">A=7, C=6</text>
<rect x="560.00" y="183.21" width="78" height="121.79" fill="#6a994e"/>
<text x="599.00" y="174.21" font-family="Arial, sans-serif" font-size="12" text-anchor="middle" fill="#222">0.064</text>
<text x="599.00" y="330.00" font-family="Arial, sans-serif" font-size="12" text-anchor="middle" fill="#222">&gt;20</text>
<text x="599.00" y="348.00" font-family="Arial, sans-serif" font-size="10" text-anchor="middle" fill="#222">A=3, C=2</text>
<text x="27.00" y="205.00" font-family="Arial, sans-serif" font-size="12" text-anchor="middle" fill="#222">C-A diff</text>
<text x="380.00" y="382.00" font-family="Arial, sans-serif" font-size="11" text-anchor="middle" fill="#222">all SPARC distance bins retain positive C-minus-A direction</text>
</svg>