<svg xmlns="http://www.w3.org/2000/svg" width="920" height="220" viewBox="0 0 920 220">
<rect width="100%" height="100%" fill="white"/>
<defs><marker id="arrow" markerWidth="8" markerHeight="8" refX="7" refY="4" orient="auto"><path d="M0,0 L8,4 L0,8 Z" fill="#333"/></marker></defs>
<rect x="30" y="62" width="145" height="88" rx="6" fill="#f7f7f2" stroke="#333"/>
<text x="102.5" y="95" font-family="Arial, sans-serif" font-size="13" text-anchor="middle" fill="#111">Blind source review</text>
<text x="102.5" y="120" font-family="Arial, sans-serif" font-size="11" text-anchor="middle" fill="#444">two reviewer workbooks</text>
<line x1="175" y1="106" x2="204" y2="106" stroke="#333" stroke-width="2" marker-end="url(#arrow)"/>
<rect x="205" y="62" width="145" height="88" rx="6" fill="#f7f7f2" stroke="#333"/>
<text x="277.5" y="95" font-family="Arial, sans-serif" font-size="13" text-anchor="middle" fill="#111">Gate checks</text>
<text x="277.5" y="120" font-family="Arial, sans-serif" font-size="11" text-anchor="middle" fill="#444">agreement, A/C evidence, blinding</text>
<line x1="350" y1="106" x2="379" y2="106" stroke="#333" stroke-width="2" marker-end="url(#arrow)"/>
<rect x="380" y="62" width="145" height="88" rx="6" fill="#f7f7f2" stroke="#333"/>
<text x="452.5" y="95" font-family="Arial, sans-serif" font-size="13" text-anchor="middle" fill="#111">Label freeze</text>
<text x="452.5" y="120" font-family="Arial, sans-serif" font-size="11" text-anchor="middle" fill="#444">v0.5 CSV committed</text>
<line x1="525" y1="106" x2="554" y2="106" stroke="#333" stroke-width="2" marker-end="url(#arrow)"/>
<rect x="555" y="62" width="145" height="88" rx="6" fill="#f7f7f2" stroke="#333"/>
<text x="627.5" y="95" font-family="Arial, sans-serif" font-size="13" text-anchor="middle" fill="#111">Residual audit</text>
<text x="627.5" y="120" font-family="Arial, sans-serif" font-size="11" text-anchor="middle" fill="#444">fixed C-minus-A endpoint</text>
<line x1="700" y1="106" x2="729" y2="106" stroke="#333" stroke-width="2" marker-end="url(#arrow)"/>
<rect x="730" y="62" width="145" height="88" rx="6" fill="#f7f7f2" stroke="#333"/>
<text x="802.5" y="95" font-family="Arial, sans-serif" font-size="13" text-anchor="middle" fill="#111">Closeout</text>
<text x="802.5" y="120" font-family="Arial, sans-serif" font-size="11" text-anchor="middle" fill="#444">manifest + paper packet</text>
<text x="460" y="35" font-family="Arial, sans-serif" font-size="18" text-anchor="middle" fill="#222">v0.5 residual-blind audit flow</text>
</svg>