<svg xmlns="http://www.w3.org/2000/svg" width="760" height="460" viewBox="0 0 760 460">
<rect width="100%" height="100%" fill="white"/>
<text x="380.00" y="30.00" font-family="Arial, sans-serif" font-size="18" text-anchor="middle" fill="#222">Weighted TPG residual scatter by coherence class</text>
<line x1="80" y1="390" x2="720" y2="390" stroke="#333"/>
<line x1="80" y1="60" x2="80" y2="390" stroke="#333"/>
<line x1="75" y1="390.00" x2="720" y2="390.00" stroke="#ddd"/>
<text x="70.00" y="394.00" font-family="Arial, sans-serif" font-size="11" text-anchor="end" fill="#222">0.00</text>
<line x1="75" y1="324.00" x2="720" y2="324.00" stroke="#ddd"/>
<text x="70.00" y="328.00" font-family="Arial, sans-serif" font-size="11" text-anchor="end" fill="#222">0.21</text>
<line x1="75" y1="258.00" x2="720" y2="258.00" stroke="#ddd"/>
<text x="70.00" y="262.00" font-family="Arial, sans-serif" font-size="11" text-anchor="end" fill="#222">0.42</text>
<line x1="75" y1="192.00" x2="720" y2="192.00" stroke="#ddd"/>
<text x="70.00" y="196.00" font-family="Arial, sans-serif" font-size="11" text-anchor="end" fill="#222">0.62</text>
<line x1="75" y1="126.00" x2="720" y2="126.00" stroke="#ddd"/>
<text x="70.00" y="130.00" font-family="Arial, sans-serif" font-size="11" text-anchor="end" fill="#222">0.83</text>
<line x1="75" y1="60.00" x2="720" y2="60.00" stroke="#ddd"/>
<text x="70.00" y="64.00" font-family="Arial, sans-serif" font-size="11" text-anchor="end" fill="#222">1.04</text>
<text x="190.00" y="422.00" font-family="Arial, sans-serif" font-size="13" text-anchor="middle" fill="#222">A (n=19)</text>
<line x1="135" y1="358.93" x2="245" y2="358.93" stroke="#111" stroke-width="3"/>
<circle cx="170.00" cy="84.44" r="4" fill="#2b8cbe" opacity="0.68"/>
<circle cx="207.00" cy="370.07" r="4" fill="#2b8cbe" opacity="0.68"/>
<circle cx="203.00" cy="362.64" r="4" fill="#2b8cbe" opacity="0.68"/>
<circle cx="199.00" cy="349.69" r="4" fill="#2b8cbe" opacity="0.68"/>
<circle cx="195.00" cy="364.41" r="4" fill="#2b8cbe" opacity="0.68"/>
<circle cx="191.00" cy="374.12" r="4" fill="#2b8cbe" opacity="0.68"/>
<circle cx="187.00" cy="382.84" r="4" fill="#2b8cbe" opacity="0.68"/>
<circle cx="183.00" cy="343.71" r="4" fill="#2b8cbe" opacity="0.68"/>
<circle cx="179.00" cy="358.93" r="4" fill="#2b8cbe" opacity="0.68"/>
<circle cx="175.00" cy="263.15" r="4" fill="#2b8cbe" opacity="0.68"/>
<circle cx="171.00" cy="368.14" r="4" fill="#2b8cbe" opacity="0.68"/>
<circle cx="208.00" cy="351.35" r="4" fill="#2b8cbe" opacity="0.68"/>
<circle cx="204.00" cy="334.29" r="4" fill="#2b8cbe" opacity="0.68"/>
<circle cx="200.00" cy="372.81" r="4" fill="#2b8cbe" opacity="0.68"/>
<circle cx="196.00" cy="362.23" r="4" fill="#2b8cbe" opacity="0.68"/>
<circle cx="192.00" cy="351.30" r="4" fill="#2b8cbe" opacity="0.68"/>
<circle cx="188.00" cy="370.28" r="4" fill="#2b8cbe" opacity="0.68"/>
<circle cx="184.00" cy="351.55" r="4" fill="#2b8cbe" opacity="0.68"/>
<circle cx="180.00" cy="291.07" r="4" fill="#2b8cbe" opacity="0.68"/>
<text x="380.00" y="422.00" font-family="Arial, sans-serif" font-size="13" text-anchor="middle" fill="#222">B (n=103)</text>
<line x1="325" y1="339.01" x2="435" y2="339.01" stroke="#111" stroke-width="3"/>
<circle cx="360.00" cy="367.07" r="4" fill="#7bccc4" opacity="0.68"/>
<circle cx="397.00" cy="303.04" r="4" fill="#7bccc4" opacity="0.68"/>
<circle cx="393.00" cy="261.70" r="4" fill="#7bccc4" opacity="0.68"/>
<circle cx="389.00" cy="303.09" r="4" fill="#7bccc4" opacity="0.68"/>
<circle cx="385.00" cy="326.00" r="4" fill="#7bccc4" opacity="0.68"/>
<circle cx="381.00" cy="319.78" r="4" fill="#7bccc4" opacity="0.68"/>
<circle cx="377.00" cy="351.41" r="4" fill="#7bccc4" opacity="0.68"/>
<circle cx="373.00" cy="302.05" r="4" fill="#7bccc4" opacity="0.68"/>
<circle cx="369.00" cy="306.90" r="4" fill="#7bccc4" opacity="0.68"/>
<circle cx="365.00" cy="238.67" r="4" fill="#7bccc4" opacity="0.68"/>
<circle cx="361.00" cy="285.70" r="4" fill="#7bccc4" opacity="0.68"/>
<circle cx="398.00" cy="186.84" r="4" fill="#7bccc4" opacity="0.68"/>
<circle cx="394.00" cy="282.63" r="4" fill="#7bccc4" opacity="0.68"/>
<circle cx="390.00" cy="326.17" r="4" fill="#7bccc4" opacity="0.68"/>
<circle cx="386.00" cy="328.36" r="4" fill="#7bccc4" opacity="0.68"/>
<circle cx="382.00" cy="279.29" r="4" fill="#7bccc4" opacity="0.68"/>
<circle cx="378.00" cy="322.01" r="4" fill="#7bccc4" opacity="0.68"/>
<circle cx="374.00" cy="252.98" r="4" fill="#7bccc4" opacity="0.68"/>
<circle cx="370.00" cy="260.45" r="4" fill="#7bccc4" opacity="0.68"/>
<circle cx="366.00" cy="370.55" r="4" fill="#7bccc4" opacity="0.68"/>
<circle cx="362.00" cy="339.01" r="4" fill="#7bccc4" opacity="0.68"/>
<circle cx="399.00" cy="152.12" r="4" fill="#7bccc4" opacity="0.68"/>
<circle cx="395.00" cy="292.96" r="4" fill="#7bccc4" opacity="0.68"/>
<circle cx="391.00" cy="298.94" r="4" fill="#7bccc4" opacity="0.68"/>
<circle cx="387.00" cy="375.36" r="4" fill="#7bccc4" opacity="0.68"/>
<circle cx="383.00" cy="284.56" r="4" fill="#7bccc4" opacity="0.68"/>
<circle cx="379.00" cy="273.59" r="4" fill="#7bccc4" opacity="0.68"/>
<circle cx="375.00" cy="302.85" r="4" fill="#7bccc4" opacity="0.68"/>
<circle cx="371.00" cy="334.17" r="4" fill="#7bccc4" opacity="0.68"/>
<circle cx="367.00" cy="361.31" r="4" fill="#7bccc4" opacity="0.68"/>
<circle cx="363.00" cy="367.73" r="4" fill="#7bccc4" opacity="0.68"/>
<circle cx="400.00" cy="341.30" r="4" fill="#7bccc4" opacity="0.68"/>
<circle cx="396.00" cy="358.73" r="4" fill="#7bccc4" opacity="0.68"/>
<circle cx="392.00" cy="354.69" r="4" fill="#7bccc4" opacity="0.68"/>
<circle cx="388.00" cy="324.73" r="4" fill="#7bccc4" opacity="0.68"/>
<circle cx="384.00" cy="367.13" r="4" fill="#7bccc4" opacity="0.68"/>
<circle cx="380.00" cy="365.40" r="4" fill="#7bccc4" opacity="0.68"/>
<circle cx="376.00" cy="369.10" r="4" fill="#7bccc4" opacity="0.68"/>
<circle cx="372.00" cy="338.52" r="4" fill="#7bccc4" opacity="0.68"/>
<circle cx="368.00" cy="360.97" r="4" fill="#7bccc4" opacity="0.68"/>
<circle cx="364.00" cy="331.22" r="4" fill="#7bccc4" opacity="0.68"/>
<circle cx="360.00" cy="375.54" r="4" fill="#7bccc4" opacity="0.68"/>
<circle cx="397.00" cy="369.27" r="4" fill="#7bccc4" opacity="0.68"/>
<circle cx="393.00" cy="374.30" r="4" fill="#7bccc4" opacity="0.68"/>
<circle cx="389.00" cy="362.53" r="4" fill="#7bccc4" opacity="0.68"/>
<circle cx="385.00" cy="352.39" r="4" fill="#7bccc4" opacity="0.68"/>
<circle cx="381.00" cy="368.78" r="4" fill="#7bccc4" opacity="0.68"/>
<circle cx="377.00" cy="345.25" r="4" fill="#7bccc4" opacity="0.68"/>
<circle cx="373.00" cy="315.10" r="4" fill="#7bccc4" opacity="0.68"/>
<circle cx="369.00" cy="320.97" r="4" fill="#7bccc4" opacity="0.68"/>
<circle cx="365.00" cy="369.28" r="4" fill="#7bccc4" opacity="0.68"/>
<circle cx="361.00" cy="367.59" r="4" fill="#7bccc4" opacity="0.68"/>
<circle cx="398.00" cy="354.18" r="4" fill="#7bccc4" opacity="0.68"/>
<circle cx="394.00" cy="286.80" r="4" fill="#7bccc4" opacity="0.68"/>
<circle cx="390.00" cy="187.75" r="4" fill="#7bccc4" opacity="0.68"/>
<circle cx="386.00" cy="370.91" r="4" fill="#7bccc4" opacity="0.68"/>
<circle cx="382.00" cy="371.97" r="4" fill="#7bccc4" opacity="0.68"/>
<circle cx="378.00" cy="333.53" r="4" fill="#7bccc4" opacity="0.68"/>
<circle cx="374.00" cy="305.16" r="4" fill="#7bccc4" opacity="0.68"/>
<circle cx="370.00" cy="348.94" r="4" fill="#7bccc4" opacity="0.68"/>
<circle cx="366.00" cy="355.88" r="4" fill="#7bccc4" opacity="0.68"/>
<circle cx="362.00" cy="363.95" r="4" fill="#7bccc4" opacity="0.68"/>
<circle cx="399.00" cy="289.80" r="4" fill="#7bccc4" opacity="0.68"/>
<circle cx="395.00" cy="367.16" r="4" fill="#7bccc4" opacity="0.68"/>
<circle cx="391.00" cy="342.53" r="4" fill="#7bccc4" opacity="0.68"/>
<circle cx="387.00" cy="355.11" r="4" fill="#7bccc4" opacity="0.68"/>
<circle cx="383.00" cy="166.92" r="4" fill="#7bccc4" opacity="0.68"/>
<circle cx="379.00" cy="362.01" r="4" fill="#7bccc4" opacity="0.68"/>
<circle cx="375.00" cy="366.81" r="4" fill="#7bccc4" opacity="0.68"/>
<circle cx="371.00" cy="323.06" r="4" fill="#7bccc4" opacity="0.68"/>
<circle cx="367.00" cy="318.28" r="4" fill="#7bccc4" opacity="0.68"/>
<circle cx="363.00" cy="330.34" r="4" fill="#7bccc4" opacity="0.68"/>
<circle cx="400.00" cy="368.87" r="4" fill="#7bccc4" opacity="0.68"/>
<circle cx="396.00" cy="353.87" r="4" fill="#7bccc4" opacity="0.68"/>
<circle cx="392.00" cy="367.99" r="4" fill="#7bccc4" opacity="0.68"/>
<circle cx="388.00" cy="328.02" r="4" fill="#7bccc4" opacity="0.68"/>
<circle cx="384.00" cy="315.44" r="4" fill="#7bccc4" opacity="0.68"/>
<circle cx="380.00" cy="299.70" r="4" fill="#7bccc4" opacity="0.68"/>
<circle cx="376.00" cy="242.87" r="4" fill="#7bccc4" opacity="0.68"/>
<circle cx="372.00" cy="348.56" r="4" fill="#7bccc4" opacity="0.68"/>
<circle cx="368.00" cy="357.86" r="4" fill="#7bccc4" opacity="0.68"/>
<circle cx="364.00" cy="338.78" r="4" fill="#7bccc4" opacity="0.68"/>
<circle cx="360.00" cy="237.91" r="4" fill="#7bccc4" opacity="0.68"/>
<circle cx="397.00" cy="327.44" r="4" fill="#7bccc4" opacity="0.68"/>
<circle cx="393.00" cy="353.11" r="4" fill="#7bccc4" opacity="0.68"/>
<circle cx="389.00" cy="368.10" r="4" fill="#7bccc4" opacity="0.68"/>
<circle cx="385.00" cy="346.91" r="4" fill="#7bccc4" opacity="0.68"/>
<circle cx="381.00" cy="318.64" r="4" fill="#7bccc4" opacity="0.68"/>
<circle cx="377.00" cy="358.89" r="4" fill="#7bccc4" opacity="0.68"/>
<circle cx="373.00" cy="357.05" r="4" fill="#7bccc4" opacity="0.68"/>
<circle cx="369.00" cy="350.39" r="4" fill="#7bccc4" opacity="0.68"/>
<circle cx="365.00" cy="368.97" r="4" fill="#7bccc4" opacity="0.68"/>
<circle cx="361.00" cy="301.66" r="4" fill="#7bccc4" opacity="0.68"/>
<circle cx="398.00" cy="377.35" r="4" fill="#7bccc4" opacity="0.68"/>
<circle cx="394.00" cy="324.93" r="4" fill="#7bccc4" opacity="0.68"/>
<circle cx="390.00" cy="162.23" r="4" fill="#7bccc4" opacity="0.68"/>
<circle cx="386.00" cy="364.94" r="4" fill="#7bccc4" opacity="0.68"/>
<circle cx="382.00" cy="347.86" r="4" fill="#7bccc4" opacity="0.68"/>
<circle cx="378.00" cy="320.43" r="4" fill="#7bccc4" opacity="0.68"/>
<circle cx="374.00" cy="352.89" r="4" fill="#7bccc4" opacity="0.68"/>
<circle cx="370.00" cy="359.36" r="4" fill="#7bccc4" opacity="0.68"/>
<circle cx="366.00" cy="339.94" r="4" fill="#7bccc4" opacity="0.68"/>
<circle cx="362.00" cy="325.28" r="4" fill="#7bccc4" opacity="0.68"/>
<text x="570.00" y="422.00" font-family="Arial, sans-serif" font-size="13" text-anchor="middle" fill="#222">C (n=53)</text>
<line x1="515" y1="327.17" x2="625" y2="327.17" stroke="#111" stroke-width="3"/>
<circle cx="550.00" cy="270.54" r="4" fill="#f03b20" opacity="0.68"/>
<circle cx="587.00" cy="319.40" r="4" fill="#f03b20" opacity="0.68"/>
<circle cx="583.00" cy="351.19" r="4" fill="#f03b20" opacity="0.68"/>
<circle cx="579.00" cy="364.35" r="4" fill="#f03b20" opacity="0.68"/>
<circle cx="575.00" cy="285.18" r="4" fill="#f03b20" opacity="0.68"/>
<circle cx="571.00" cy="311.04" r="4" fill="#f03b20" opacity="0.68"/>
<circle cx="567.00" cy="254.99" r="4" fill="#f03b20" opacity="0.68"/>
<circle cx="563.00" cy="321.23" r="4" fill="#f03b20" opacity="0.68"/>
<circle cx="559.00" cy="349.52" r="4" fill="#f03b20" opacity="0.68"/>
<circle cx="555.00" cy="376.29" r="4" fill="#f03b20" opacity="0.68"/>
<circle cx="551.00" cy="327.04" r="4" fill="#f03b20" opacity="0.68"/>
<circle cx="588.00" cy="307.98" r="4" fill="#f03b20" opacity="0.68"/>
<circle cx="584.00" cy="352.73" r="4" fill="#f03b20" opacity="0.68"/>
<circle cx="580.00" cy="372.53" r="4" fill="#f03b20" opacity="0.68"/>
<circle cx="576.00" cy="275.62" r="4" fill="#f03b20" opacity="0.68"/>
<circle cx="572.00" cy="358.99" r="4" fill="#f03b20" opacity="0.68"/>
<circle cx="568.00" cy="275.44" r="4" fill="#f03b20" opacity="0.68"/>
<circle cx="564.00" cy="138.51" r="4" fill="#f03b20" opacity="0.68"/>
<circle cx="560.00" cy="357.61" r="4" fill="#f03b20" opacity="0.68"/>
<circle cx="556.00" cy="381.87" r="4" fill="#f03b20" opacity="0.68"/>
<circle cx="552.00" cy="327.17" r="4" fill="#f03b20" opacity="0.68"/>
<circle cx="589.00" cy="331.10" r="4" fill="#f03b20" opacity="0.68"/>
<circle cx="585.00" cy="190.92" r="4" fill="#f03b20" opacity="0.68"/>
<circle cx="581.00" cy="299.98" r="4" fill="#f03b20" opacity="0.68"/>
<circle cx="577.00" cy="355.35" r="4" fill="#f03b20" opacity="0.68"/>
<circle cx="573.00" cy="378.89" r="4" fill="#f03b20" opacity="0.68"/>
<circle cx="569.00" cy="338.02" r="4" fill="#f03b20" opacity="0.68"/>
<circle cx="565.00" cy="346.08" r="4" fill="#f03b20" opacity="0.68"/>
<circle cx="561.00" cy="344.84" r="4" fill="#f03b20" opacity="0.68"/>
<circle cx="557.00" cy="332.05" r="4" fill="#f03b20" opacity="0.68"/>
<circle cx="553.00" cy="324.39" r="4" fill="#f03b20" opacity="0.68"/>
<circle cx="590.00" cy="220.50" r="4" fill="#f03b20" opacity="0.68"/>
<circle cx="586.00" cy="338.49" r="4" fill="#f03b20" opacity="0.68"/>
<circle cx="582.00" cy="289.46" r="4" fill="#f03b20" opacity="0.68"/>
<circle cx="578.00" cy="366.94" r="4" fill="#f03b20" opacity="0.68"/>
<circle cx="574.00" cy="313.60" r="4" fill="#f03b20" opacity="0.68"/>
<circle cx="570.00" cy="289.22" r="4" fill="#f03b20" opacity="0.68"/>
<circle cx="566.00" cy="361.66" r="4" fill="#f03b20" opacity="0.68"/>
<circle cx="562.00" cy="344.87" r="4" fill="#f03b20" opacity="0.68"/>
<circle cx="558.00" cy="343.55" r="4" fill="#f03b20" opacity="0.68"/>
<circle cx="554.00" cy="263.24" r="4" fill="#f03b20" opacity="0.68"/>
<circle cx="550.00" cy="281.46" r="4" fill="#f03b20" opacity="0.68"/>
<circle cx="587.00" cy="182.47" r="4" fill="#f03b20" opacity="0.68"/>
<circle cx="583.00" cy="332.68" r="4" fill="#f03b20" opacity="0.68"/>
<circle cx="579.00" cy="311.84" r="4" fill="#f03b20" opacity="0.68"/>
<circle cx="575.00" cy="365.50" r="4" fill="#f03b20" opacity="0.68"/>
<circle cx="571.00" cy="326.58" r="4" fill="#f03b20" opacity="0.68"/>
<circle cx="567.00" cy="321.66" r="4" fill="#f03b20" opacity="0.68"/>
<circle cx="563.00" cy="330.87" r="4" fill="#f03b20" opacity="0.68"/>
<circle cx="559.00" cy="235.92" r="4" fill="#f03b20" opacity="0.68"/>
<circle cx="555.00" cy="292.37" r="4" fill="#f03b20" opacity="0.68"/>
<circle cx="551.00" cy="362.33" r="4" fill="#f03b20" opacity="0.68"/>
<circle cx="588.00" cy="356.56" r="4" fill="#f03b20" opacity="0.68"/>
<text x="22.00" y="225.00" font-family="Arial, sans-serif" font-size="12" text-anchor="middle" fill="#222">weighted_rms_log_tpg</text>
</svg>